<svg width="20" height="20" viewBox="0 0 20 20" fill="none" xmlns="http://www.w3.org/2000/svg">
<g clip-path="url(#clip0_2:46)">
<path d="M19.6576 3.57727C19.4756 1.87164 18.1285 0.524292 16.4227 0.342407C12.1451 -0.114136 7.85492 -0.114136 3.57742 0.342407C1.87164 0.524445 0.524445 1.87164 0.342407 3.57727C-0.114136 7.85477 -0.114136 12.1451 0.342407 16.4226C0.524445 18.1284 1.87164 19.4756 3.57727 19.6576C7.85477 20.1141 12.1451 20.1141 16.4227 19.6576C18.1285 19.4756 19.4756 18.1284 19.6576 16.4226C20.1141 12.1451 20.1141 7.85492 19.6576 3.57727Z" fill="url(#paint0_radial_2:46)"/>
<path d="M18.5698 4.3007C18.4084 2.78719 17.213 1.59166 15.6993 1.43007C11.9035 1.0251 8.09648 1.0251 4.3007 1.43007C2.78719 1.59166 1.59166 2.78719 1.43007 4.3007C1.0251 8.09648 1.0251 11.9035 1.43007 15.6992C1.59166 17.2128 2.78719 18.4084 4.3007 18.5698C8.09648 18.9749 11.9035 18.9749 15.6992 18.5698C17.2128 18.4084 18.4084 17.2128 18.5698 15.6992C18.9749 11.9035 18.9749 8.09648 18.5698 4.3007Z" fill="url(#paint1_linear_2:46)"/>
<path d="M0.299683 16.008C0.313416 16.1462 0.327606 16.2845 0.342407 16.4227C0.524445 18.1284 1.87164 19.4756 3.57742 19.6576C7.85492 20.1141 12.1452 20.1141 16.4227 19.6576C18.1285 19.4756 19.4756 18.1284 19.6576 16.4227C19.6724 16.2845 19.6866 16.1462 19.7005 16.008H0.299683Z" fill="url(#paint2_linear_2:46)"/>
<path d="M19.6576 16.4228C19.903 14.1244 20.0162 11.8223 19.9979 9.52048L15.4264 4.94895C14.8552 4.29694 14.021 3.88999 13.0408 3.85474C11.025 3.78211 9.00272 3.78577 6.98657 3.85504C5.31207 3.91272 4.14111 5.03821 3.84082 6.69242C3.78787 6.98447 3.75613 7.28034 3.71448 7.57453V12.4241C3.73752 12.5812 3.77139 12.7376 3.78192 12.8957C3.84906 13.9019 4.26257 14.7637 4.92465 15.3467L9.57675 19.9987C11.8598 20.0147 14.1429 19.9012 16.4228 19.6578C18.1285 19.4758 19.4756 18.1286 19.6576 16.4228Z" fill="url(#paint3_linear_2:46)"/>
<path d="M19.6576 16.4227C19.4757 18.1282 18.1282 19.4757 16.4227 19.6576C14.1432 19.9008 11.8596 20.0145 9.57684 19.9985L4.93176 15.3534C5.47025 15.8247 6.17215 16.1118 6.98666 16.1424C9.00235 16.2181 11.0251 16.2161 13.0407 16.1435C14.8639 16.0776 16.1831 14.7282 16.2401 12.9051C16.3008 10.9694 16.3008 9.02863 16.2401 7.0929C16.2141 6.25183 15.9189 5.51178 15.4294 4.95178L19.998 9.52042C20.016 11.8219 19.9028 14.1243 19.6576 16.4227Z" fill="url(#paint4_linear_2:46)"/>
<path d="M12.3599 7.83432C11.7743 7.19666 10.934 6.79657 10 6.79657C8.2309 6.79657 6.79657 8.2309 6.79657 10C6.79657 10.934 7.19666 11.7743 7.83432 12.3599L15.246 19.7716C15.6383 19.7374 16.0306 19.6994 16.4226 19.6576C18.1284 19.4756 19.4756 18.1284 19.6576 16.4226C19.6994 16.0306 19.7374 15.6383 19.7716 15.246L12.3599 7.83432Z" fill="url(#paint5_linear_2:46)"/>
<path d="M19.9612 12.1544L13.9962 6.18958C13.8571 6.00693 13.6378 5.88837 13.3905 5.88837C12.9696 5.88837 12.6283 6.22955 12.6283 6.65054C12.6283 6.89789 12.7469 7.11716 12.9295 7.25632L19.8546 14.1815C19.9016 13.506 19.9371 12.8302 19.9612 12.1544Z" fill="url(#paint6_linear_2:46)"/>
<path d="M3.71448 7.57453C3.75613 7.28034 3.78787 6.98447 3.84082 6.69242C4.14096 5.03821 5.31207 3.91272 6.98657 3.85504C9.00272 3.78577 11.025 3.78211 13.0408 3.85474C14.8633 3.92035 16.1832 5.26984 16.2401 7.09296C16.3007 9.02884 16.3007 10.9695 16.2401 12.9053C16.1832 14.7285 14.8638 16.0778 13.041 16.1436C11.0251 16.2163 9.00241 16.2182 6.98672 16.1425C5.16391 16.074 3.90384 14.7214 3.78192 12.8956C3.77139 12.7376 3.73752 12.5811 3.71448 12.4239C3.71448 10.8074 3.71448 9.19089 3.71448 7.57453ZM10.0017 15.0631C10.9243 15.0631 11.8477 15.0907 12.769 15.0567C14.2136 15.0031 15.1021 14.141 15.1358 12.6978C15.1776 10.8996 15.1776 9.09888 15.1358 7.30048C15.1021 5.85761 14.213 4.97534 12.769 4.94467C10.9363 4.90592 9.10159 4.90622 7.26886 4.94467C5.83591 4.97473 4.94479 5.83914 4.90588 7.26615C4.85645 9.08713 4.85645 10.9113 4.90588 12.7323C4.94479 14.1592 5.83591 15.0036 7.26901 15.0567C8.17874 15.0905 9.09076 15.0631 10.0017 15.0631Z" fill="url(#paint7_linear_2:46)"/>
<path d="M3.71448 7.57453C3.75613 7.28034 3.78787 6.98447 3.84082 6.69242C4.14096 5.03821 5.31207 3.91272 6.98657 3.85504C9.00272 3.78577 11.025 3.78211 13.0408 3.85474C14.8633 3.92035 16.1832 5.26984 16.2401 7.09296C16.3007 9.02884 16.3007 10.9695 16.2401 12.9053C16.1832 14.7285 14.8638 16.0778 13.041 16.1436C11.0251 16.2163 9.00241 16.2182 6.98672 16.1425C5.16391 16.074 3.90384 14.7214 3.78192 12.8956C3.77139 12.7376 3.73752 12.5811 3.71448 12.4239C3.71448 10.8074 3.71448 9.19089 3.71448 7.57453ZM10.0017 15.0631C10.9243 15.0631 11.8477 15.0907 12.769 15.0567C14.2136 15.0031 15.1021 14.141 15.1358 12.6978C15.1776 10.8996 15.1776 9.09888 15.1358 7.30048C15.1021 5.85761 14.213 4.97534 12.769 4.94467C10.9363 4.90592 9.10159 4.90622 7.26886 4.94467C5.83591 4.97473 4.94479 5.83914 4.90588 7.26615C4.85645 9.08713 4.85645 10.9113 4.90588 12.7323C4.94479 14.1592 5.83591 15.0036 7.26901 15.0567C8.17874 15.0905 9.09076 15.0631 10.0017 15.0631Z" fill="white"/>
<path d="M10.0001 6.79672C8.23096 6.79672 6.79663 8.2309 6.79663 10C6.79663 11.7693 8.23096 13.2034 10.0001 13.2034C11.7693 13.2034 13.2035 11.7693 13.2035 10C13.2035 8.2309 11.7693 6.79672 10.0001 6.79672ZM10.0001 12.1005C8.83994 12.1005 7.89954 11.1601 7.89954 10C7.89954 8.83987 8.83994 7.89948 10.0001 7.89948C11.1602 7.89948 12.1006 8.83987 12.1006 10C12.1006 11.1601 11.1602 12.1005 10.0001 12.1005Z" fill="white"/>
<path d="M14.1526 6.65054C14.1526 7.07138 13.8114 7.41257 13.3905 7.41257C12.9697 7.41257 12.6284 7.07138 12.6284 6.65054C12.6284 6.22955 12.9697 5.88837 13.3905 5.88837C13.8114 5.88837 14.1526 6.22955 14.1526 6.65054Z" fill="white"/>
</g>
<defs>
<radialGradient id="paint0_radial_2:46" cx="0" cy="0" r="1" gradientUnits="userSpaceOnUse" gradientTransform="translate(4.09989 17.4784) scale(22.0565)">
<stop stop-color="#FAE100"/>
<stop offset="0.0544" stop-color="#FADC04"/>
<stop offset="0.1167" stop-color="#FBCE0E"/>
<stop offset="0.1829" stop-color="#FCB720"/>
<stop offset="0.2514" stop-color="#FE9838"/>
<stop offset="0.3054" stop-color="#FF7950"/>
<stop offset="0.4922" stop-color="#FF1C74"/>
<stop offset="1" stop-color="#6C1CD1"/>
</radialGradient>
<linearGradient id="paint1_linear_2:46" x1="7.67082" y1="8.68985" x2="-26.2115" y2="-10.369" gradientUnits="userSpaceOnUse">
<stop stop-color="#A1B5D8" stop-opacity="0"/>
<stop offset="0.3094" stop-color="#90A2BD" stop-opacity="0.309804"/>
<stop offset="0.7554" stop-color="#7C8B9C" stop-opacity="0.756863"/>
<stop offset="1" stop-color="#748290"/>
</linearGradient>
<linearGradient id="paint2_linear_2:46" x1="10" y1="17.6549" x2="10" y2="20.7724" gradientUnits="userSpaceOnUse">
<stop stop-color="#FAE100" stop-opacity="0"/>
<stop offset="0.3068" stop-color="#FCA800" stop-opacity="0.305882"/>
<stop offset="0.6275" stop-color="#FE7300" stop-opacity="0.627451"/>
<stop offset="0.8685" stop-color="#FF5200" stop-opacity="0.866667"/>
<stop offset="1" stop-color="#FF4500"/>
</linearGradient>
<linearGradient id="paint3_linear_2:46" x1="8.86223" y1="8.83412" x2="3.91256" y2="3.88444" gradientUnits="userSpaceOnUse">
<stop stop-color="#833AB4" stop-opacity="0"/>
<stop offset="1" stop-color="#833AB4"/>
</linearGradient>
<linearGradient id="paint4_linear_2:46" x1="13.707" y1="18.2925" x2="11.2365" y2="6.646" gradientUnits="userSpaceOnUse">
<stop stop-color="#833AB4" stop-opacity="0"/>
<stop offset="1" stop-color="#833AB4"/>
</linearGradient>
<linearGradient id="paint5_linear_2:46" x1="14.6471" y1="14.6471" x2="4.72426" y2="4.72425" gradientUnits="userSpaceOnUse">
<stop stop-color="#833AB4" stop-opacity="0"/>
<stop offset="1" stop-color="#833AB4"/>
</linearGradient>
<linearGradient id="paint6_linear_2:46" x1="15.383" y1="8.64309" x2="12.1018" y2="5.36181" gradientUnits="userSpaceOnUse">
<stop stop-color="#833AB4" stop-opacity="0"/>
<stop offset="1" stop-color="#833AB4"/>
</linearGradient>
<linearGradient id="paint7_linear_2:46" x1="13.9711" y1="6.05684" x2="5.8806" y2="14.1473" gradientUnits="userSpaceOnUse">
<stop stop-color="#833AB4"/>
<stop offset="0.0922" stop-color="#9C3495"/>
<stop offset="0.2927" stop-color="#DC2546"/>
<stop offset="0.392" stop-color="#FD1D1D"/>
<stop offset="0.5589" stop-color="#FC6831"/>
<stop offset="0.6887" stop-color="#FC9B40"/>
<stop offset="0.7521" stop-color="#FCAF45"/>
<stop offset="0.7806" stop-color="#FDB750"/>
<stop offset="0.8656" stop-color="#FECB6A"/>
<stop offset="0.9415" stop-color="#FFD87A"/>
<stop offset="1" stop-color="#FFDC80"/>
</linearGradient>
<clipPath id="clip0_2:46">
<rect width="20" height="20" fill="white"/>
</clipPath>
</defs>
</svg>
